<svg xmlns="http://www.w3.org/2000/svg" viewBox="0 0 512 512" width="512" height="512">
  <defs>
    <!-- Background gradient: warm copper bottom-left to cool graphite top-right -->
    <linearGradient id="bg" x1="0%" y1="100%" x2="100%" y2="0%">
      <stop offset="0%"   stop-color="#3d2a18"/>
      <stop offset="35%"  stop-color="#2e2018"/>
      <stop offset="65%"  stop-color="#252830"/>
      <stop offset="100%" stop-color="#1e2530"/>
    </linearGradient>

    <!-- Copper text shine -->
    <linearGradient id="textShine" x1="0%" y1="0%" x2="100%" y2="0%">
      <stop offset="0%"   stop-color="#c07035"/>
      <stop offset="25%"  stop-color="#e8a96a"/>
      <stop offset="50%"  stop-color="#f0b878"/>
      <stop offset="75%"  stop-color="#d08040"/>
      <stop offset="100%" stop-color="#8b4a1a"/>
    </linearGradient>

    <!-- Symbol copper gradient in userSpaceOnUse matching original 482x482 coords -->
    <linearGradient id="symCu" x1="105" y1="130" x2="380" y2="355" gradientUnits="userSpaceOnUse">
      <stop offset="0%"   stop-color="#f2bc80"/>
      <stop offset="30%"  stop-color="#d48844"/>
      <stop offset="60%"  stop-color="#b86828"/>
      <stop offset="100%" stop-color="#7a3a10"/>
    </linearGradient>

    <!-- Glass gloss -->
    <linearGradient id="gloss" x1="30%" y1="0%" x2="70%" y2="55%">
      <stop offset="0%"  stop-color="white" stop-opacity="0.16"/>
      <stop offset="50%" stop-color="white" stop-opacity="0.03"/>
      <stop offset="100%" stop-color="white" stop-opacity="0"/>
    </linearGradient>

    <!-- Filters -->
    <filter id="textShadow">
      <feDropShadow dx="0" dy="3" stdDeviation="5" flood-color="#000" flood-opacity="0.9"/>
    </filter>
    <filter id="symGlow" x="-20%" y="-20%" width="140%" height="140%">
      <feGaussianBlur in="SourceGraphic" stdDeviation="5" result="blur"/>
      <feColorMatrix in="blur" type="matrix"
        values="1.2 0.3 0   0 0
                0.5 0.4 0   0 0
                0   0   0.1 0 0
                0   0   0   0.35 0" result="coloredBlur"/>
      <feMerge>
        <feMergeNode in="coloredBlur"/>
        <feMergeNode in="SourceGraphic"/>
      </feMerge>
    </filter>

    <!-- Rounded clip -->
    <clipPath id="roundedClip">
      <rect x="0" y="0" width="512" height="512" rx="112" ry="112"/>
    </clipPath>
    <!-- Full square clip for maskable -->
    <clipPath id="fullClip">
      <rect x="0" y="0" width="512" height="512"/>
    </clipPath>
  </defs>

  <g clip-path="url(#roundedClip)">
    <!-- Background -->
    <rect width="512" height="512" fill="url(#bg)"/>
    <radialGradient id="cg" cx="50%" cy="40%" r="55%">
      <stop offset="0%" stop-color="#3a2010" stop-opacity="0.35"/>
      <stop offset="100%" stop-color="transparent"/>
    </radialGradient>
    <rect width="512" height="512" fill="url(#cg)"/>

    <!-- ── SYMBOL centered, dominant ──
         Symbol original: 482x482, center at (241,241)
         Target size: ~300px wide (60% of 512) → scale = 300/482 = 0.622
         Center x = 256, center y = ~185 (upper area, symbol occupies y=35..335)
         tx = 256 - 241*0.622 = 256 - 149.9 = 106.1
         ty = 185 - 241*0.622 = 185 - 149.9 = 35.1
    -->
    <g transform="translate(-37, -94) scale(1.214)" filter="url(#symGlow)">
      <path
        transform="matrix(1,0,0,-1,1,480.9999)"
        d="M252.2373 155.2689C293.7214 161.2049 325.5993 196.8721 325.5993 240.0001 325.5993 274.138 305.625 303.6025 276.7235 317.3465V343.8629C285.2926 340.8338 293.5123 336.7295 301.1893 331.5906 375.4888 281.859 362.1209 169.9753 280.9264 137.7102 270.9507 133.7457 259.2264 131.002 248.4822 130.1817 241.5413 129.651 234.612 129.7732 227.778 130.5306V183.8871C227.7935 202.6406 227.8066 221.3759 227.7553 240.1707 227.7085 255.7641 252.1363 256.2868 252.2373 240.156V205.3749C271.5508 212.2002 281.2989 233.3557 274.6261 252.239 261.04 290.6617 203.2875 282.2601 203.2875 239.9987V205.9231 191.0452C160.9534 222.8434 176.4777 289.5463 227.7635 299.9622 227.7635 308.219 227.7635 316.4749 227.7635 324.7308 186.3825 318.8109 154.5588 283.3044 154.4014 240.3198 154.5293 208.4428 171.7248 176.7543 203.2875 162.3005V136.1339C194.7197 139.1615 186.4967 143.265 178.8123 148.4084 104.73 197.9926 117.7875 309.3914 198.4022 342.0215 208.6965 346.1856 220.6551 349.005 231.7051 349.831 238.5913 350.3472 245.4625 350.2196 252.2373 349.4682V299.9622C316.66 286.8919 317.5821 193.2919 252.2373 180.0351Z"
        fill="url(#symCu)"
        fill-rule="evenodd"
      />
    </g>

    <!-- Thin separator -->
    <line x1="96" y1="358" x2="416" y2="358"
          stroke="url(#textShine)" stroke-width="1" stroke-opacity="0.3"/>

    <!-- ── CRM TEXT centered below symbol ── -->
    <g filter="url(#textShadow)">
      <text
        x="256" y="440"
        text-anchor="middle"
        font-family="Georgia, 'Times New Roman', serif"
        font-size="115"
        font-weight="700"
        letter-spacing="10"
        fill="url(#textShine)"
      >CRM</text>
    </g>

    <!-- Glass gloss top -->
    <ellipse cx="210" cy="90" rx="185" ry="65" fill="url(#gloss)" opacity="0.9"/>

    <!-- Glass rim -->
    <rect x="1" y="1" width="510" height="510" rx="111" ry="111"
          fill="none" stroke="white" stroke-width="1.5" stroke-opacity="0.08"/>
  </g>
</svg>
